<?xml version="1.0" standalone="no"?>
<!DOCTYPE svg PUBLIC "-//W3C//DTD SVG 20010904//EN"
 "http://www.w3.org/TR/2001/REC-SVG-20010904/DTD/svg10.dtd">
<svg version="1.0" xmlns="http://www.w3.org/2000/svg"
 width="396.000000pt" height="130.000000pt" viewBox="0 0 396.000000 130.000000"
 preserveAspectRatio="xMidYMid meet">

<g transform="translate(0.000000,130.000000) scale(0.100000,-0.100000)"
fill="#000000" stroke="none">
<path d="M385 1017 l-220 -133 0 -65 0 -64 430 -3 c237 -1 440 0 453 3 20 5
22 11 22 65 l0 59 -226 135 c-124 75 -228 136 -232 136 -4 -1 -106 -60 -227
-133z m435 -40 c178 -107 205 -126 208 -150 l3 -27 -415 0 -416 0 0 28 c1 24
19 38 203 149 111 67 204 122 207 122 3 1 97 -54 210 -122z"/>
<path d="M507 916 c-3 -8 -3 -17 0 -20 4 -3 53 -6 110 -6 94 0 104 2 101 18
-3 15 -17 17 -104 20 -81 2 -103 0 -107 -12z"/>
<path d="M1280 681 c0 -245 3 -236 -95 -229 l-65 6 0 -78 0 -78 50 -11 c143
-31 251 15 280 117 5 20 10 137 10 260 l0 222 -90 0 -90 0 0 -209z"/>
<path d="M1920 589 l0 -301 178 4 c167 3 179 4 221 28 56 31 81 65 88 118 8
61 -4 108 -38 142 l-31 30 27 32 c25 29 27 38 23 96 -4 59 -7 67 -40 97 -47
44 -106 55 -283 55 l-145 0 0 -301z m284 128 c11 -8 15 -19 10 -30 -5 -13 -18
-17 -60 -17 -53 0 -54 0 -54 30 0 29 2 30 43 30 24 0 51 -6 61 -13z m30 -223
c11 -30 -13 -44 -75 -44 -59 0 -59 0 -59 30 l0 30 64 0 c50 0 65 -4 70 -16z"/>
<path d="M3330 590 l0 -300 90 0 90 0 0 48 c0 78 12 81 56 13 l39 -61 103 0
c56 0 102 3 102 6 0 3 -36 62 -81 130 l-80 126 75 88 c42 49 76 91 76 94 0 3
-46 6 -102 6 l-103 -1 -40 -51 -40 -50 -3 126 -3 126 -89 0 -90 0 0 -300z"/>
<path d="M2555 744 c-11 -3 -35 -10 -52 -15 l-33 -11 0 -74 c0 -41 1 -74 3
-74 1 0 20 7 42 15 22 8 67 14 100 14 59 -1 60 -1 20 -10 -106 -25 -142 -40
-175 -74 -66 -68 -47 -186 35 -221 45 -18 95 -18 145 2 31 13 44 14 53 5 6 -6
44 -11 90 -11 l78 0 -3 179 c-3 164 -5 182 -24 208 -38 50 -79 67 -173 69 -47
2 -95 1 -106 -2z m113 -296 c-3 -26 -43 -37 -62 -18 -8 8 -6 15 8 26 31 22 58
18 54 -8z"/>
<path d="M3082 733 c-25 -12 -36 -13 -45 -4 -6 6 -42 11 -84 11 l-73 0 0 -225
0 -225 90 0 89 0 3 141 c3 118 6 144 19 152 9 6 24 7 33 4 14 -6 16 -26 16
-152 l0 -145 90 0 90 0 0 168 c0 154 -2 171 -22 212 -38 74 -128 102 -206 63z"/>
<path d="M280 566 c0 -115 -1 -125 -20 -131 -37 -12 -60 -54 -60 -111 0 -47
-2 -54 -20 -54 -13 0 -20 -7 -20 -20 0 -20 7 -20 455 -20 448 0 455 0 455 20
0 13 -7 20 -20 20 -17 0 -20 7 -20 45 0 57 -21 100 -60 120 l-30 16 0 119 c0
113 -1 120 -20 120 -19 0 -20 -7 -20 -120 l0 -120 -65 0 -65 0 0 120 0 120
-25 0 -25 0 0 -120 0 -120 -105 0 -105 0 0 120 0 120 -25 0 -25 0 0 -120 0
-120 -65 0 -65 0 0 120 0 120 -25 0 -25 0 0 -124z m684 -182 c10 -10 16 -33
16 -65 l0 -49 -370 0 -370 0 0 43 c0 23 7 53 16 65 15 22 15 22 354 22 294 0
341 -2 354 -16z"/>
<path d="M1500 585 l0 -75 203 2 202 3 3 73 3 72 -206 0 -205 0 0 -75z"/>
</g>
</svg>
