<?xml version="1.0" encoding="UTF-8"?>
<!DOCTYPE svg PUBLIC "-//W3C//DTD SVG 1.1//EN" "http://www.w3.org/Graphics/SVG/1.1/DTD/svg11.dtd">
<svg xmlns="http://www.w3.org/2000/svg" version="1.1" width="396px" height="130px" style="shape-rendering:geometricPrecision; text-rendering:geometricPrecision; image-rendering:optimizeQuality; fill-rule:evenodd; clip-rule:evenodd" xmlns:xlink="http://www.w3.org/1999/xlink">
<g><path style="opacity:1" fill="#fdfdfd" d="M -0.5,-0.5 C 131.5,-0.5 263.5,-0.5 395.5,-0.5C 395.5,42.8333 395.5,86.1667 395.5,129.5C 263.5,129.5 131.5,129.5 -0.5,129.5C -0.5,86.1667 -0.5,42.8333 -0.5,-0.5 Z"/></g>
<g><path style="opacity:1" fill="#090909" d="M 57.5,15.5 C 73.1591,23.6348 88.4925,32.4681 103.5,42C 104.464,46.0659 104.797,50.2325 104.5,54.5C 74.1667,54.5 43.8333,54.5 13.5,54.5C 13.3345,50.4862 13.5012,46.4862 14,42.5C 28.4802,33.3496 42.9802,24.3496 57.5,15.5 Z"/></g>
<g><path style="opacity:1" fill="#fafafa" d="M 57.5,20.5 C 71.7275,27.9517 85.7275,35.9517 99.5,44.5C 100.466,46.396 100.799,48.396 100.5,50.5C 72.8333,50.5 45.1667,50.5 17.5,50.5C 17.2011,48.396 17.5344,46.396 18.5,44.5C 31.7311,36.7255 44.7311,28.7255 57.5,20.5 Z"/></g>
<g><path style="opacity:1" fill="#030303" d="M 48.5,37.5 C 55.175,37.3337 61.8417,37.5004 68.5,38C 69.3366,39.0113 69.67,40.1779 69.5,41.5C 62.5,41.5 55.5,41.5 48.5,41.5C 48.5,40.1667 48.5,38.8333 48.5,37.5 Z"/></g>
<g><path style="opacity:1" fill="#040404" d="M 137.5,44.5 C 141.833,44.5 146.167,44.5 150.5,44.5C 150.667,58.504 150.5,72.504 150,86.5C 147.735,95.557 141.902,100.224 132.5,100.5C 124.702,100.939 119.035,97.7721 115.5,91C 117.452,88.2631 119.952,86.0964 123,84.5C 125.746,87.9474 129.246,89.4474 133.5,89C 135.049,87.786 136.215,86.286 137,84.5C 137.5,71.1708 137.667,57.8375 137.5,44.5 Z"/></g>
<g><path style="opacity:1" fill="#040404" d="M 183.5,44.5 C 191.174,44.3336 198.841,44.5003 206.5,45C 218.721,45.5371 223.888,51.7037 222,63.5C 220.75,66.1707 218.917,68.3374 216.5,70C 226.302,75.8522 228.135,83.6855 222,93.5C 219.749,95.3773 217.249,96.8773 214.5,98C 204.216,99.3381 193.883,99.8381 183.5,99.5C 183.5,81.1667 183.5,62.8333 183.5,44.5 Z"/></g>
<g><path style="opacity:1" fill="#070707" d="M 240.5,44.5 C 246.093,44.1934 251.593,44.5268 257,45.5C 262.403,63.2073 267.903,80.8739 273.5,98.5C 268.88,99.4933 264.214,99.8266 259.5,99.5C 258.987,95.447 258.154,91.447 257,87.5C 251.333,86.1667 245.667,86.1667 240,87.5C 238.846,91.447 238.013,95.447 237.5,99.5C 233.167,99.5 228.833,99.5 224.5,99.5C 229.434,81.0332 234.767,62.6999 240.5,44.5 Z"/></g>
<g><path style="opacity:1" fill="#040404" d="M 306.5,79.5 C 306.73,81.9828 307.397,82.4828 308.5,81C 307.928,77.015 307.261,73.1817 306.5,69.5C 306.5,61.5 306.5,53.5 306.5,45.5C 310.5,45.5 314.5,45.5 318.5,45.5C 318.5,63.5 318.5,81.5 318.5,99.5C 313.901,99.8 309.401,99.4667 305,98.5C 298.712,86.2582 292.712,73.9248 287,61.5C 287.898,74.1248 288.398,86.7915 288.5,99.5C 284.167,99.5 279.833,99.5 275.5,99.5C 275.5,81.1667 275.5,62.8333 275.5,44.5C 280.214,44.1734 284.88,44.5067 289.5,45.5C 295.228,56.9563 300.895,68.2897 306.5,79.5 Z"/></g>
<g><path style="opacity:1" fill="#999999" d="M 306.5,45.5 C 310.634,44.5151 314.968,44.1818 319.5,44.5C 319.83,63.0076 319.497,81.3409 318.5,99.5C 318.5,81.5 318.5,63.5 318.5,45.5C 314.5,45.5 310.5,45.5 306.5,45.5 Z"/></g>
<g><path style="opacity:1" fill="#666666" d="M 341.5,65.5 C 340.509,59.021 340.176,52.3543 340.5,45.5C 336.5,45.5 332.5,45.5 328.5,45.5C 328.5,63.5 328.5,81.5 328.5,99.5C 327.503,81.3409 327.17,63.0076 327.5,44.5C 332.167,44.5 336.833,44.5 341.5,44.5C 341.5,51.5 341.5,58.5 341.5,65.5 Z"/></g>
<g><path style="opacity:1" fill="#050505" d="M 328.5,99.5 C 328.5,81.5 328.5,63.5 328.5,45.5C 332.5,45.5 336.5,45.5 340.5,45.5C 340.176,52.3543 340.509,59.021 341.5,65.5C 346.637,58.8489 351.637,52.0156 356.5,45C 361.5,44.3333 366.5,44.3333 371.5,45C 365.451,52.0478 359.784,59.3811 354.5,67C 360.959,77.417 367.292,87.917 373.5,98.5C 368.833,99.8333 364.167,99.8333 359.5,98.5C 355.333,91.5 351.167,84.5 347,77.5C 345.333,79.5 343.667,81.5 342,83.5C 341.501,88.8229 341.334,94.1563 341.5,99.5C 337.167,99.5 332.833,99.5 328.5,99.5 Z"/></g>
<g><path style="opacity:1" fill="#efefef" d="M 196.5,54.5 C 201.284,53.8392 205.618,54.8392 209.5,57.5C 211.179,61.2878 210.179,64.1211 206.5,66C 203.183,66.4983 199.85,66.665 196.5,66.5C 196.5,62.5 196.5,58.5 196.5,54.5 Z"/></g>
<g><path style="opacity:1" fill="#ededed" d="M 247.5,55.5 C 248.586,55.62 249.253,56.2867 249.5,57.5C 251.094,63.8024 252.427,70.1357 253.5,76.5C 250.167,76.5 246.833,76.5 243.5,76.5C 244.674,69.471 246.007,62.471 247.5,55.5 Z"/></g>
<g><path style="opacity:1" fill="#090909" d="M 26.5,61.5 C 27.8333,61.5 29.1667,61.5 30.5,61.5C 30.5,69.5 30.5,77.5 30.5,85.5C 34.8333,85.5 39.1667,85.5 43.5,85.5C 43.5,77.5 43.5,69.5 43.5,61.5C 44.8333,61.5 46.1667,61.5 47.5,61.5C 47.5,69.5 47.5,77.5 47.5,85.5C 54.8333,85.5 62.1667,85.5 69.5,85.5C 69.5,77.5 69.5,69.5 69.5,61.5C 71.1667,61.5 72.8333,61.5 74.5,61.5C 74.5,69.5 74.5,77.5 74.5,85.5C 78.8333,85.5 83.1667,85.5 87.5,85.5C 87.5,77.5 87.5,69.5 87.5,61.5C 88.8333,61.5 90.1667,61.5 91.5,61.5C 91.5,69.8333 91.5,78.1667 91.5,86.5C 95.5616,86.7241 98.395,88.7241 100,92.5C 100.499,96.1516 100.665,99.8183 100.5,103.5C 101.833,103.5 103.167,103.5 104.5,103.5C 104.5,104.833 104.5,106.167 104.5,107.5C 74.1667,107.5 43.8333,107.5 13.5,107.5C 13.5,106.167 13.5,104.833 13.5,103.5C 14.8333,103.5 16.1667,103.5 17.5,103.5C 17.1326,99.0329 17.6326,94.6996 19,90.5C 20.883,87.9756 23.383,86.6423 26.5,86.5C 26.5,78.1667 26.5,69.8333 26.5,61.5 Z"/></g>
<g><path style="opacity:1" fill="#000000" d="M 176.5,73.5 C 176.5,76.5 176.5,79.5 176.5,82.5C 169.833,82.5 163.167,82.5 156.5,82.5C 156.5,79.5 156.5,76.5 156.5,73.5C 163.167,73.5 169.833,73.5 176.5,73.5 Z"/></g>
<g><path style="opacity:1" fill="#f6f6f6" d="M 196.5,76.5 C 200.846,76.3343 205.179,76.501 209.5,77C 213.911,81.8677 213.244,85.8677 207.5,89C 203.848,89.4986 200.182,89.6653 196.5,89.5C 196.5,85.1667 196.5,80.8333 196.5,76.5 Z"/></g>
<g><path style="opacity:1" fill="#b6b6b6" d="M 306.5,69.5 C 307.261,73.1817 307.928,77.015 308.5,81C 307.397,82.4828 306.73,81.9828 306.5,79.5C 306.5,76.1667 306.5,72.8333 306.5,69.5 Z"/></g>
<g><path style="opacity:1" fill="#959595" d="M 176.5,73.5 C 177.479,76.6248 177.813,79.9581 177.5,83.5C 170.313,83.8245 163.313,83.4912 156.5,82.5C 163.167,82.5 169.833,82.5 176.5,82.5C 176.5,79.5 176.5,76.5 176.5,73.5 Z"/></g>
<g><path style="opacity:1" fill="#f5f5f5" d="M 95.5,94.5 C 95.5,97.1667 95.5,99.8333 95.5,102.5C 71.1667,102.5 46.8333,102.5 22.5,102.5C 22.5,99.8333 22.5,97.1667 22.5,94.5C 23.0241,91.8122 24.6908,90.3122 27.5,90C 48.8333,89.3333 70.1667,89.3333 91.5,90C 93.751,90.7475 95.0844,92.2475 95.5,94.5 Z"/></g>
<g><path style="opacity:1" fill="#b8b8b8" d="M 22.5,94.5 C 22.5,97.1667 22.5,99.8333 22.5,102.5C 46.8333,102.5 71.1667,102.5 95.5,102.5C 95.5,99.8333 95.5,97.1667 95.5,94.5C 96.4767,97.2869 96.81,100.287 96.5,103.5C 71.5,103.5 46.5,103.5 21.5,103.5C 21.19,100.287 21.5233,97.2869 22.5,94.5 Z"/></g>
</svg>
